HIERARCHY
ROOT hip
{
  OFFSET 0.0 0.0 0.0
  CHANNELS 6 Xposition Yposition Zposition Zrotation Yrotation Xrotation
  JOINT torso
  {
    OFFSET 0.0 0.0 0.0
    CHANNELS 3 Zrotation Xrotation Yrotation
    JOINT neck
    {
      OFFSET -31.42098999999993 328.8025209999999 74.3554680000002
      CHANNELS 3 Zrotation Xrotation Yrotation
      JOINT head
      {
        OFFSET 3.3519900000001144 303.81732099999994 206.53942900000015
        CHANNELS 3 Zrotation Xrotation Yrotation
        End Site
        {
          OFFSET 0.0 0.0 0.0
        }
      }
    }
    JOINT left_collar
    {
      OFFSET -31.42098999999993 328.8025209999999 74.3554680000002
      CHANNELS 3 Zrotation Xrotation Yrotation
      JOINT left_upper_arm
      {
        OFFSET -124.490479 -8.162841999999841 8.226441000000023
        CHANNELS 3 Zrotation Xrotation Yrotation
        JOINT left_forearm
        {
          OFFSET -253.595764 -1.5758060000000569 105.0729980000001
          CHANNELS 3 Zrotation Xrotation Yrotation
          JOINT left_hand
          {
            OFFSET -269.48803699999996 0.1478270000000066 -55.346191999999974
            CHANNELS 3 Zrotation Xrotation Yrotation
            End Site
            {
              OFFSET 0.0 0.0 0.0
            }
          }
        }
      }
    }
    JOINT right_collar
    {
      OFFSET -31.42098999999993 328.8025209999999 74.3554680000002
      CHANNELS 3 Zrotation Xrotation Yrotation
      JOINT right_upper_arm
      {
        OFFSET 162.02484099999998 0.46441600000002836 2.2303470000001653
        CHANNELS 3 Zrotation Xrotation Yrotation
        JOINT right_forearm
        {
          OFFSET 240.01246700000004 -25.835875999999985 121.34179699999959
          CHANNELS 3 Zrotation Xrotation Yrotation
          JOINT right_hand
          {
            OFFSET 252.48539699999992 18.910399999999868 -67.53466800000001
            CHANNELS 3 Zrotation Xrotation Yrotation
            End Site
            {
              OFFSET 0.0 0.0 0.0
            }
          }
        }
      }
    }
  }
}
MOTION
Frames: 6
Frame Time: 0.01
-841.1144662816973 199.7010202804792 378.46819022353685 7.149237868224709 -1.6277086792991882 20.574541903047628 0.2067191294764032 -1.7879345596327452 -0.22010645008752766 -6.197539496655571 -12.638818658863121 4.691122157412287 0.0 0.0 0.0 7.7234183326952754 -1.325213637855009 13.768929346410022 30.225535516550018 12.026388753518843 2.411795286522764 65.11884062205482 12.647076353156406 -42.943811109517135 0.0 0.0 0.0 1.9158163311046112 -0.16179805925498084 6.8985220838870696 -31.292992949458668 3.3735158848965567 -31.365520576043956 -39.18225598260193 5.585004700268295 56.92805228638162 0.0 0.0 0.0
-841.30059698197 199.75438547798373 378.40576562167746 7.0871005568870595 -1.5848767519836287 20.563538190992304 0.22936560202709194 -1.8030145054606828 -0.22702701113709542 -6.222942946404637 -12.643681403725315 4.710014742141695 0.0 0.0 0.0 7.73585281621684 -1.336701400090868 13.849597041473956 30.063429937706434 11.972322389349944 2.369571505070737 64.6975514628772 12.75379374043082 -43.26718947591307 0.0 0.0 0.0 1.915299592426589 -0.16288352452993124 6.95559340250013 -31.37111340303424 3.4101395279875666 -31.316031509840897 -39.4782830592726 5.6721049492108735 56.96187059316955 0.0 0.0 0.0
-841.4327774353701 199.8132459985048 378.34038882570707 7.02551664082737 -1.5428941641368106 20.542187306691012 0.25190838252274045 -1.8148601084535891 -0.23361462578555076 -6.246224606196217 -12.653696930853776 4.727526669138193 0.0 0.0 0.0 7.746658369366852 -1.3468909022388473 13.921126395314277 29.915001533393735 11.920351417125596 2.3385648693088794 64.24333231680878 12.853310026499019 -43.59630770482159 0.0 0.0 0.0 1.917026955364119 -0.16413922426741925 7.01276961923777 -31.455274985527943 3.4535563083101253 -31.252879307284946 -39.794668107331674 5.7693193899375705 57.01056405075818 0.0 0.0 0.0
-841.5124551611138 199.87699362868298 378.2735622886229 6.96481707003072 -1.5016942844986463 20.51216864576431 0.27405402254398137 -1.8240611970196028 -0.23985395246188893 -6.26687952785273 -12.668392036431591 4.743270094628896 0.0 0.0 0.0 7.755559011560856 -1.3556393608532151 13.982615138292163 29.779159206913338 11.871602640446921 2.3138478393329813 63.75682950104902 12.944928854507976 -43.930357821010944 0.0 0.0 0.0 1.9207425973899934 -0.16552298085371905 7.068722909430852 -31.54568509264173 3.503626012544055 -31.176674802732744 -40.13059178973377 5.875983165614787 57.07200507035499 0.0 0.0 0.0
-841.5415999437196 199.94490644766952 378.20699782372554 6.90533482010094 -1.4612478420005994 20.475305698154283 0.29550671920994626 -1.8312627175348573 -0.24573480467723446 -6.284425157394989 -12.687129419741524 4.756867270881927 0.0 0.0 0.0 7.76229871521274 -1.3628226366255425 14.033290981397801 29.654602214878462 11.82717400438531 2.2901991365046217 63.23887301219561 13.02800886550338 -44.26850534539942 0.0 0.0 0.0 1.9261373948512843 -0.16698679912620087 7.12207504355212 -31.64256258535837 3.5601545597051767 -31.088182995314334 -40.48492144564215 5.991333989487673 57.14406069414806 0.0 0.0 0.0
-841.5226823075299 200.01616547797053 378.1425633232122 6.847397110734062 -1.4215633925189175 20.43352423059975 0.315973151608992 -1.837147126205635 -0.2512516838923367 -6.298411999018365 -12.709128328143091 4.7679590888752905 0.0 0.0 0.0 7.766646976429626 -1.3683377483829957 14.072524217489766 29.539867922662868 11.78811350066873 2.262250743384134 62.69047572066016 13.10197813769598 -44.60990363216131 0.0 0.0 0.0 1.9328594311222016 -0.1684781235245652 7.1714355926588125 -31.746129302128093 3.622885180515777 -30.988337864604816 -40.856183873873675 6.114512782096328 57.22464198561021 0.0 0.0 0.0
